<svg width="120" height="120" viewBox="0 0 120 120" fill="none" xmlns="http://www.w3.org/2000/svg">
<rect width="120" height="120" fill="#00BCE2"/>
<path d="M26.4 29.76V23.44L21.376 28.576V29.76C21.376 29.92 21.296 30 21.136 30H19.328C19.2533 30 19.1893 29.9787 19.136 29.936C19.0933 29.8827 19.072 29.824 19.072 29.76V19.344C19.072 19.28 19.0933 19.2267 19.136 19.184C19.1893 19.1307 19.2533 19.104 19.328 19.104H21.136C21.296 19.104 21.376 19.184 21.376 19.344V25.744L26.4 20.608V19.36C26.4 19.2853 26.4213 19.2267 26.464 19.184C26.5173 19.1307 26.576 19.104 26.64 19.104H28.464C28.528 19.104 28.5813 19.1307 28.624 19.184C28.6773 19.2267 28.704 19.2853 28.704 19.36V29.76C28.704 29.92 28.624 30 28.464 30H26.64C26.48 30 26.4 29.92 26.4 29.76ZM32.9489 24.32V28.288C33.2049 28.384 33.5035 28.432 33.8449 28.432C34.4635 28.432 34.9489 28.2773 35.3009 27.968C35.6849 27.616 35.8769 27.0773 35.8769 26.352C35.8769 25.744 35.7062 25.2427 35.3649 24.848C35.0022 24.4533 34.5009 24.256 33.8609 24.256C33.4982 24.256 33.1942 24.2773 32.9489 24.32ZM31.0769 22.784C31.7169 22.6133 32.5755 22.528 33.6529 22.528C35.0822 22.528 36.1809 22.912 36.9489 23.68C37.6315 24.3413 37.9729 25.232 37.9729 26.352C37.9729 27.4293 37.6849 28.2987 37.1089 28.96C36.3942 29.76 35.3809 30.16 34.0689 30.16C33.6315 30.16 33.2582 30.1173 32.9489 30.032V33.504C32.9489 33.5787 32.9222 33.6373 32.8689 33.68C32.8262 33.7333 32.7729 33.76 32.7089 33.76H31.0769C30.9169 33.76 30.8369 33.6747 30.8369 33.504V23.072C30.8369 22.9333 30.9169 22.8373 31.0769 22.784ZM46.2741 19.344C46.2741 20.1867 45.9915 20.848 45.4261 21.328C45.1275 21.584 44.6261 21.856 43.9221 22.144C43.2181 22.4213 42.7861 22.6027 42.6261 22.688C42.0395 23.008 41.6395 23.408 41.4261 23.888C42.1728 23.5147 42.9728 23.328 43.8261 23.328C44.8608 23.328 45.6875 23.664 46.3061 24.336C46.8395 24.9227 47.1061 25.6853 47.1061 26.624C47.1061 27.6587 46.7541 28.5013 46.0501 29.152C45.3141 29.824 44.3488 30.16 43.1541 30.16C41.9808 30.16 41.0581 29.824 40.3861 29.152C39.5861 28.352 39.1861 27.1573 39.1861 25.568C39.1861 23.808 39.7941 22.512 41.0101 21.68C41.3515 21.4453 41.8261 21.2107 42.4341 20.976C43.0528 20.7413 43.4955 20.5227 43.7621 20.32C44.1461 20.032 44.3381 19.7067 44.3381 19.344C44.3381 19.28 44.3595 19.2267 44.4021 19.184C44.4555 19.1307 44.5141 19.104 44.5781 19.104H46.0341C46.1941 19.104 46.2741 19.184 46.2741 19.344ZM41.2341 25.44V25.92C41.2661 26.7093 41.4261 27.3173 41.7141 27.744C42.0235 28.2453 42.5035 28.496 43.1541 28.496C43.7515 28.496 44.2155 28.3147 44.5461 27.952C44.8661 27.6533 45.0261 27.2107 45.0261 26.624C45.0261 26.112 44.8768 25.6907 44.5781 25.36C44.2261 24.976 43.7728 24.784 43.2181 24.784C42.4501 24.784 41.7888 25.0027 41.2341 25.44ZM56.2308 22.912V29.76C56.2308 29.824 56.2041 29.8827 56.1508 29.936C56.1081 29.9787 56.0548 30 55.9908 30H54.3588C54.1988 30 54.1188 29.92 54.1188 29.76V26L50.8708 28.896V29.76C50.8708 29.824 50.8441 29.8827 50.7908 29.936C50.7481 29.9787 50.6948 30 50.6308 30H48.9988C48.8388 30 48.7588 29.92 48.7588 29.76V22.912C48.7588 22.752 48.8388 22.672 48.9988 22.672H50.6308C50.7908 22.672 50.8708 22.752 50.8708 22.912V26.704L54.1188 23.792V22.912C54.1188 22.752 54.1988 22.672 54.3588 22.672H55.9908C56.1508 22.672 56.2308 22.752 56.2308 22.912ZM57.6656 22.672H64.3216C64.4816 22.672 64.5616 22.752 64.5616 22.912V24.288C64.5616 24.448 64.4816 24.528 64.3216 24.528H62.0496V29.76C62.0496 29.824 62.023 29.8827 61.9696 29.936C61.927 29.9787 61.8683 30 61.7936 30H60.1776C60.1136 30 60.055 29.9787 60.0016 29.936C59.959 29.8827 59.9376 29.824 59.9376 29.76V24.528H57.6656C57.495 24.528 57.4096 24.448 57.4096 24.288V22.912C57.4096 22.752 57.495 22.672 57.6656 22.672ZM69.4388 28.384C69.9721 28.384 70.5001 28.2347 71.0228 27.936C71.1828 27.84 71.3001 27.8613 71.3748 28L71.9668 29.152C72.0308 29.2587 71.9988 29.36 71.8708 29.456C71.2308 29.9253 70.4041 30.16 69.3908 30.16C68.0574 30.16 67.0174 29.7707 66.2708 28.992C65.6308 28.2987 65.3108 27.4133 65.3108 26.336C65.3108 25.4187 65.5774 24.6347 66.1108 23.984C66.8894 23.024 67.9988 22.544 69.4388 22.544C70.3561 22.544 71.1561 22.784 71.8388 23.264C71.9668 23.3493 71.9988 23.456 71.9348 23.584L71.3108 24.752C71.2468 24.8907 71.1294 24.912 70.9588 24.816C70.4468 24.496 69.9401 24.336 69.4388 24.336C68.8414 24.336 68.3561 24.5387 67.9828 24.944C67.6414 25.3173 67.4708 25.7813 67.4708 26.336C67.4708 26.9333 67.6468 27.4187 67.9988 27.792C68.3614 28.1867 68.8414 28.384 69.4388 28.384ZM78.679 22.672H80.551C80.6683 22.672 80.7377 22.7147 80.759 22.8C80.791 22.8853 80.759 22.9867 80.663 23.104L78.055 26.208L80.791 29.568C80.887 29.6853 80.919 29.7867 80.887 29.872C80.855 29.9573 80.7857 30 80.679 30H78.727C78.535 30 78.3857 29.92 78.279 29.76L76.263 27.216H75.511V29.76C75.511 29.824 75.4843 29.8827 75.431 29.936C75.3883 29.9787 75.335 30 75.271 30H73.655C73.495 30 73.415 29.92 73.415 29.76V22.912C73.415 22.752 73.495 22.672 73.655 22.672H75.271C75.431 22.672 75.511 22.752 75.511 22.912V25.376H76.279L78.215 22.912C78.3323 22.752 78.487 22.672 78.679 22.672ZM89.5901 22.912V29.76C89.5901 29.824 89.5635 29.8827 89.5101 29.936C89.4675 29.9787 89.4141 30 89.3501 30H87.7181C87.5581 30 87.4781 29.92 87.4781 29.76V26L84.2301 28.896V29.76C84.2301 29.824 84.2035 29.8827 84.1501 29.936C84.1075 29.9787 84.0541 30 83.9901 30H82.3581C82.1981 30 82.1181 29.92 82.1181 29.76V22.912C82.1181 22.752 82.1981 22.672 82.3581 22.672H83.9901C84.1501 22.672 84.2301 22.752 84.2301 22.912V26.704L87.4781 23.792V22.912C87.4781 22.752 87.5581 22.672 87.7181 22.672H89.3501C89.5101 22.672 89.5901 22.752 89.5901 22.912ZM99.137 22.912V29.76C99.137 29.824 99.1103 29.8827 99.057 29.936C99.0143 29.9787 98.961 30 98.897 30H97.265C97.105 30 97.025 29.92 97.025 29.76V26L93.777 28.896V29.76C93.777 29.824 93.7503 29.8827 93.697 29.936C93.6543 29.9787 93.601 30 93.537 30H91.905C91.745 30 91.665 29.92 91.665 29.76V22.912C91.665 22.752 91.745 22.672 91.905 22.672H93.537C93.697 22.672 93.777 22.752 93.777 22.912V26.704L97.025 23.792V22.912C97.025 22.752 97.105 22.672 97.265 22.672H98.897C99.057 22.672 99.137 22.752 99.137 22.912ZM94.289 18.432C94.385 19.0507 94.753 19.36 95.393 19.36C96.033 19.36 96.401 19.0507 96.497 18.432C96.5183 18.2613 96.609 18.176 96.769 18.176H97.521C97.713 18.176 97.809 18.2667 97.809 18.448C97.809 19.12 97.5957 19.6907 97.169 20.16C96.7423 20.6293 96.1503 20.864 95.393 20.864C94.6357 20.864 94.0437 20.6293 93.617 20.16C93.1903 19.6907 92.977 19.12 92.977 18.448C92.977 18.2667 93.073 18.176 93.265 18.176H94.017C94.1663 18.176 94.257 18.2613 94.289 18.432ZM23.808 44.816H22.848C22.6667 44.816 22.528 44.7307 22.432 44.56L21.104 42.32V45.76C21.104 45.824 21.0773 45.8827 21.024 45.936C20.9813 45.9787 20.928 46 20.864 46H19.28C19.12 46 19.04 45.92 19.04 45.76V38.912C19.04 38.752 19.12 38.672 19.28 38.672H20.848C21.0613 38.672 21.2053 38.752 21.28 38.912L23.328 42.432L25.344 38.912C25.44 38.752 25.584 38.672 25.776 38.672H27.376C27.536 38.672 27.616 38.752 27.616 38.912V45.76C27.616 45.824 27.5893 45.8827 27.536 45.936C27.4933 45.9787 27.44 46 27.376 46H25.792C25.728 46 25.6693 45.9787 25.616 45.936C25.5733 45.8827 25.552 45.824 25.552 45.76V42.32L24.208 44.56C24.112 44.7307 23.9787 44.816 23.808 44.816ZM31.8403 40.896C31.4989 41.2693 31.3283 41.7547 31.3283 42.352C31.3283 42.9493 31.4989 43.44 31.8403 43.824C32.1816 44.1973 32.6349 44.384 33.2003 44.384C33.7656 44.384 34.2189 44.1973 34.5603 43.824C34.9016 43.44 35.0723 42.9493 35.0723 42.352C35.0723 41.7547 34.9016 41.2693 34.5603 40.896C34.2189 40.512 33.7656 40.32 33.2003 40.32C32.6349 40.32 32.1816 40.512 31.8403 40.896ZM30.3683 45.136C29.6216 44.4427 29.2483 43.5147 29.2483 42.352C29.2483 41.1893 29.6216 40.2613 30.3683 39.568C31.1256 38.8747 32.0696 38.528 33.2003 38.528C34.3416 38.528 35.2856 38.8747 36.0323 39.568C36.7896 40.2613 37.1683 41.1893 37.1683 42.352C37.1683 43.5147 36.7896 44.4427 36.0323 45.136C35.2856 45.8187 34.3416 46.16 33.2003 46.16C32.0589 46.16 31.1149 45.8187 30.3683 45.136ZM41.4773 40.528C41.4239 41.8827 41.3013 42.976 41.1093 43.808C40.8959 44.6507 40.6133 45.296 40.2613 45.744C40.1119 45.9147 39.9199 46 39.6853 46H38.3573C38.2186 46 38.1279 45.9573 38.0853 45.872C38.0533 45.7867 38.0799 45.664 38.1653 45.504C38.5493 44.8853 38.8426 44.208 39.0453 43.472C39.2693 42.5653 39.3813 41.3333 39.3813 39.776V38.912C39.3813 38.848 39.4026 38.7947 39.4453 38.752C39.4986 38.6987 39.5573 38.672 39.6213 38.672H45.7013C45.8613 38.672 45.9413 38.752 45.9413 38.912V45.76C45.9413 45.92 45.8613 46 45.7013 46H44.0853C44.0213 46 43.9626 45.9787 43.9093 45.936C43.8666 45.8827 43.8453 45.824 43.8453 45.76V40.528H41.4773ZM50.1684 40.896C49.827 41.2693 49.6564 41.7547 49.6564 42.352C49.6564 42.9493 49.827 43.44 50.1684 43.824C50.5097 44.1973 50.963 44.384 51.5284 44.384C52.0937 44.384 52.547 44.1973 52.8884 43.824C53.2297 43.44 53.4004 42.9493 53.4004 42.352C53.4004 41.7547 53.2297 41.2693 52.8884 40.896C52.547 40.512 52.0937 40.32 51.5284 40.32C50.963 40.32 50.5097 40.512 50.1684 40.896ZM48.6964 45.136C47.9497 44.4427 47.5764 43.5147 47.5764 42.352C47.5764 41.1893 47.9497 40.2613 48.6964 39.568C49.4537 38.8747 50.3977 38.528 51.5284 38.528C52.6697 38.528 53.6137 38.8747 54.3604 39.568C55.1177 40.2613 55.4964 41.1893 55.4964 42.352C55.4964 43.5147 55.1177 44.4427 54.3604 45.136C53.6137 45.8187 52.6697 46.16 51.5284 46.16C50.387 46.16 49.443 45.8187 48.6964 45.136ZM64.0294 38.912V45.76C64.0294 45.824 64.0027 45.8827 63.9494 45.936C63.9067 45.9787 63.8534 46 63.7894 46H62.1574C61.9974 46 61.9174 45.92 61.9174 45.76V43.712C61.3414 43.8827 60.7707 43.968 60.2054 43.968C59.1174 43.968 58.3174 43.7333 57.8054 43.264C57.2614 42.7733 56.9894 42.0053 56.9894 40.96V38.912C56.9894 38.752 57.0747 38.672 57.2454 38.672H58.8774C59.0374 38.672 59.1174 38.752 59.1174 38.912V40.96C59.1174 41.408 59.224 41.7333 59.4374 41.936C59.6294 42.128 59.96 42.224 60.4294 42.224C60.8454 42.224 61.3414 42.1387 61.9174 41.968V38.912C61.9174 38.752 61.9974 38.672 62.1574 38.672H63.7894C63.9494 38.672 64.0294 38.752 64.0294 38.912ZM71.5425 38.672H73.1425C73.3025 38.672 73.3825 38.752 73.3825 38.912V45.76C73.3825 45.92 73.3025 46 73.1425 46H71.5425C71.3825 46 71.3025 45.92 71.3025 45.76V43.216H68.1985V45.76C68.1985 45.824 68.1718 45.8827 68.1185 45.936C68.0758 45.9787 68.0225 46 67.9585 46H66.3425C66.1825 46 66.1025 45.92 66.1025 45.76V38.912C66.1025 38.752 66.1825 38.672 66.3425 38.672H67.9585C68.1185 38.672 68.1985 38.752 68.1985 38.912V41.376H71.3025V38.912C71.3025 38.752 71.3825 38.672 71.5425 38.672ZM79.8779 43.776C79.8779 43.5733 79.8139 43.4133 79.6859 43.296C79.4939 43.136 79.1739 43.056 78.7259 43.056H77.5739V44.464H78.8219C79.2272 44.464 79.5099 44.3947 79.6699 44.256C79.8085 44.1493 79.8779 43.9893 79.8779 43.776ZM83.1739 38.672H84.8059C84.9659 38.672 85.0459 38.752 85.0459 38.912V45.76C85.0459 45.824 85.0192 45.8827 84.9659 45.936C84.9232 45.9787 84.8699 46 84.8059 46H83.1739C83.0992 46 83.0352 45.9787 82.9819 45.936C82.9392 45.8827 82.9179 45.824 82.9179 45.76V38.912C82.9179 38.752 83.0032 38.672 83.1739 38.672ZM77.5739 38.912V41.52H79.2699C80.2299 41.52 80.9499 41.776 81.4299 42.288C81.7819 42.6933 81.9579 43.1893 81.9579 43.776C81.9579 44.4267 81.7392 44.9547 81.3019 45.36C80.8432 45.7867 80.1659 46 79.2699 46H75.7019C75.5419 46 75.4619 45.92 75.4619 45.76V38.912C75.4619 38.752 75.5419 38.672 75.7019 38.672H77.3339C77.4939 38.672 77.5739 38.752 77.5739 38.912ZM94.5901 38.912V45.76C94.5901 45.824 94.5635 45.8827 94.5101 45.936C94.4675 45.9787 94.4141 46 94.3501 46H92.7181C92.5581 46 92.4781 45.92 92.4781 45.76V42L89.2301 44.896V45.76C89.2301 45.824 89.2035 45.8827 89.1501 45.936C89.1075 45.9787 89.0541 46 88.9901 46H87.3581C87.1981 46 87.1181 45.92 87.1181 45.76V38.912C87.1181 38.752 87.1981 38.672 87.3581 38.672H88.9901C89.1501 38.672 89.2301 38.752 89.2301 38.912V42.704L92.4781 39.792V38.912C92.4781 38.752 92.5581 38.672 92.7181 38.672H94.3501C94.5101 38.672 94.5901 38.752 94.5901 38.912ZM89.7421 34.432C89.8381 35.0507 90.2061 35.36 90.8461 35.36C91.4861 35.36 91.8541 35.0507 91.9501 34.432C91.9715 34.2613 92.0621 34.176 92.2221 34.176H92.9741C93.1661 34.176 93.2621 34.2667 93.2621 34.448C93.2621 35.12 93.0488 35.6907 92.6221 36.16C92.1955 36.6293 91.6035 36.864 90.8461 36.864C90.0888 36.864 89.4968 36.6293 89.0701 36.16C88.6435 35.6907 88.4301 35.12 88.4301 34.448C88.4301 34.2667 88.5261 34.176 88.7181 34.176H89.4701C89.6195 34.176 89.7101 34.2613 89.7421 34.432ZM21.056 62.16C20.0747 62.16 19.2427 61.9573 18.56 61.552C18.5067 61.5307 18.4693 61.488 18.448 61.424C18.4267 61.3493 18.432 61.2853 18.464 61.232L18.944 60.192C19.0187 60.0427 19.1253 60.0107 19.264 60.096C19.8507 60.4373 20.3893 60.608 20.88 60.608C21.1787 60.608 21.4347 60.5387 21.648 60.4C21.872 60.272 21.984 60.08 21.984 59.824C21.984 59.4827 21.7653 59.248 21.328 59.12C21.136 59.056 20.8427 59.024 20.448 59.024H19.904C19.744 59.024 19.664 58.944 19.664 58.784V57.76C19.664 57.6 19.744 57.52 19.904 57.52H20.32C20.736 57.52 21.0347 57.488 21.216 57.424C21.5573 57.3173 21.728 57.1147 21.728 56.816C21.728 56.6133 21.6427 56.4533 21.472 56.336C21.312 56.24 21.12 56.192 20.896 56.192C20.416 56.192 19.8987 56.3467 19.344 56.656C19.216 56.7413 19.1147 56.7093 19.04 56.56L18.544 55.52C18.48 55.3813 18.5173 55.2747 18.656 55.2C19.424 54.752 20.2347 54.528 21.088 54.528C21.8667 54.528 22.496 54.7307 22.976 55.136C23.4453 55.5413 23.68 56.0267 23.68 56.592C23.6907 57.2853 23.3707 57.808 22.72 58.16C23.584 58.512 24.016 59.1253 24.016 60C24.016 60.64 23.76 61.1573 23.248 61.552C22.7253 61.9573 21.9947 62.16 21.056 62.16ZM28.2734 56.16C27.6227 56.16 26.956 56.352 26.2734 56.736C26.1027 56.832 25.9854 56.8053 25.9214 56.656L25.4574 55.648C25.404 55.52 25.436 55.4133 25.5534 55.328C26.396 54.7947 27.388 54.528 28.5294 54.528C29.5747 54.528 30.348 54.8053 30.8494 55.36C31.276 55.84 31.4894 56.4907 31.4894 57.312V61.76C31.4894 61.824 31.4627 61.8827 31.4094 61.936C31.3667 61.9787 31.3134 62 31.2494 62H29.8414C29.7667 62 29.7027 61.9787 29.6494 61.936C29.6067 61.8827 29.5854 61.824 29.5854 61.76V61.632H29.5214C28.9667 61.984 28.316 62.16 27.5694 62.16C26.8867 62.16 26.3214 61.9627 25.8734 61.568C25.3934 61.1733 25.1534 60.6187 25.1534 59.904C25.1534 59.072 25.596 58.4533 26.4814 58.048C27.1427 57.76 28.108 57.568 29.3774 57.472V57.312C29.3774 56.9387 29.3027 56.6613 29.1534 56.48C28.9827 56.2667 28.6894 56.16 28.2734 56.16ZM28.2574 60.592C28.6734 60.592 29.0467 60.4907 29.3774 60.288V58.896C27.9054 58.9493 27.1694 59.264 27.1694 59.84C27.1694 60.0853 27.2707 60.272 27.4734 60.4C27.676 60.528 27.9374 60.592 28.2574 60.592ZM37.4466 62H33.6706C33.5106 62 33.4306 61.92 33.4306 61.76V54.912C33.4306 54.752 33.5106 54.672 33.6706 54.672H36.8066C37.5853 54.672 38.1826 54.8267 38.5986 55.136C39.068 55.4773 39.3026 55.9467 39.3026 56.544C39.3026 57.2907 38.9933 57.808 38.3746 58.096V58.144C39.3986 58.368 39.9106 58.9867 39.9106 60C39.9106 60.6613 39.6653 61.1627 39.1746 61.504C38.6946 61.8347 38.1186 62 37.4466 62ZM37.2706 56.88C37.2706 56.624 37.164 56.4267 36.9506 56.288C36.7906 56.192 36.5933 56.144 36.3586 56.144H35.4626V57.584H36.2626C36.54 57.584 36.7426 57.5573 36.8706 57.504C37.1373 57.3653 37.2706 57.1573 37.2706 56.88ZM37.8146 59.728C37.8146 59.3973 37.6493 59.1627 37.3186 59.024C37.1586 58.9493 36.8546 58.912 36.4066 58.912H35.4626V60.544H36.6146C36.8813 60.544 37.1106 60.512 37.3026 60.448C37.644 60.32 37.8146 60.08 37.8146 59.728ZM43.7153 56.896C43.3739 57.2693 43.2033 57.7547 43.2033 58.352C43.2033 58.9493 43.3739 59.44 43.7153 59.824C44.0566 60.1973 44.5099 60.384 45.0753 60.384C45.6406 60.384 46.0939 60.1973 46.4353 59.824C46.7766 59.44 46.9473 58.9493 46.9473 58.352C46.9473 57.7547 46.7766 57.2693 46.4353 56.896C46.0939 56.512 45.6406 56.32 45.0753 56.32C44.5099 56.32 44.0566 56.512 43.7153 56.896ZM42.2433 61.136C41.4966 60.4427 41.1233 59.5147 41.1233 58.352C41.1233 57.1893 41.4966 56.2613 42.2433 55.568C43.0006 54.8747 43.9446 54.528 45.0753 54.528C46.2166 54.528 47.1606 54.8747 47.9073 55.568C48.6646 56.2613 49.0433 57.1893 49.0433 58.352C49.0433 59.5147 48.6646 60.4427 47.9073 61.136C47.1606 61.8187 46.2166 62.16 45.0753 62.16C43.9339 62.16 42.9899 61.8187 42.2433 61.136ZM59.0003 54.912V60.128H60.9203C60.9843 60.128 61.0376 60.1547 61.0803 60.208C61.1336 60.2507 61.1603 60.3093 61.1603 60.384V64.432C61.1603 64.496 61.1336 64.5493 61.0803 64.592C61.0376 64.6453 60.9843 64.672 60.9203 64.672H59.3203C59.2563 64.672 59.1976 64.6453 59.1443 64.592C59.1016 64.5493 59.0803 64.496 59.0803 64.432V62H52.1363V64.432C52.1363 64.592 52.0563 64.672 51.8963 64.672H50.2963C50.1363 64.672 50.0563 64.592 50.0563 64.432V60.384C50.0563 60.2133 50.1363 60.128 50.2963 60.128H51.7523C52.0829 59.5413 52.3123 58.8747 52.4403 58.128C52.5469 57.5627 52.6109 56.752 52.6323 55.696V54.912C52.6323 54.752 52.7123 54.672 52.8723 54.672H58.7443C58.9149 54.672 59.0003 54.752 59.0003 54.912ZM54.6803 56.528C54.6483 57.2853 54.5629 57.968 54.4243 58.576C54.2963 59.12 54.1096 59.6373 53.8643 60.128H56.8883V56.528H54.6803Z" fill="white"/>
</svg>
